<svg width="333" height="332" viewBox="0 0 333 332" fill="none" xmlns="http://www.w3.org/2000/svg">
<path d="M89.8152 3.90052e-05C89.0831 -0.00136533 88.3496 0.0351471 87.6064 0.110279C84.6403 0.414318 81.6042 1.35593 78.7487 3.00672C78.7431 3.01024 78.7326 3.00392 78.7277 3.00672L57.8834 15.0981C52.3838 18.2817 49.0216 23.6294 48.1733 28.987C47.3251 34.3445 48.6073 39.608 51.1268 44.0625C51.2038 44.2008 51.2857 44.3413 51.3669 44.4789L43.1643 72.7201C41.9116 73.5796 40.7379 74.5549 39.665 75.6159C36.0284 79.2089 33.3591 83.9225 32.7754 89.3503C32.191 94.7795 34.1213 100.859 38.6585 105.413L55.6753 122.507C60.3176 127.163 66.3806 129.25 71.904 128.848C75.1444 128.614 78.1573 127.616 80.8484 126.106L85.814 130.802C84.2008 132.888 82.9445 135.359 82.2047 138.131L81.0681 142.365L93.7099 145.767L94.8465 141.509C95.5884 138.734 96.7446 137.739 98.4334 136.99C99.2768 136.615 100.302 136.381 101.429 136.331C102.556 136.282 103.785 136.419 104.972 136.748C107.347 137.407 109.434 138.829 110.549 140.369C111.665 141.91 112.147 143.365 111.446 145.986L110.309 150.222L122.951 153.623L124.088 149.387C125.733 143.235 124.312 137.057 121.135 132.668C117.959 128.278 113.371 125.45 108.45 124.088C105.991 123.407 103.408 123.093 100.818 123.21C99.6491 123.263 98.4803 123.407 97.3185 123.649L90.079 116.803C91.5207 114.17 92.4726 111.225 92.7035 108.069C93.1137 102.51 91.0098 96.4317 86.3396 91.744L69.3025 74.6729C66.0292 71.3867 61.9427 69.507 57.8855 68.946L62.1946 54.1337C62.3185 54.1843 62.4417 54.239 62.567 54.2882C67.641 56.2585 74.0001 55.9692 79.5599 52.7504L100.425 40.683C104.697 38.2057 107.792 34.5783 109.501 30.6104L124.265 34.7798C123.649 37.4095 123.48 40.1781 123.915 42.9861C124.751 48.3809 128.156 53.7644 133.713 56.9859L154.579 69.0759C157.238 70.6171 160.047 71.5124 162.823 71.8635L165.117 84.7869C163.203 85.8774 161.461 87.2283 159.912 88.7591C156.276 92.3542 153.629 97.0678 153.045 102.496C152.46 107.923 154.367 114.004 158.906 118.558L161.86 121.521L171.11 112.238L168.157 109.275C166.132 107.244 165.838 105.742 166.036 103.9C166.234 102.058 167.343 99.8414 169.098 98.107C170.853 96.3727 173.137 95.2562 175.025 95.0568C175.261 95.0322 175.501 95.0203 175.725 95.0133C177.301 94.9641 178.643 95.3953 180.318 97.0755V97.098L183.269 100.039L192.499 90.7785L189.568 87.8167C186.237 84.4723 182.045 82.5912 177.911 82.0674L175.637 69.2317C179.08 67.199 181.844 64.2702 183.796 60.9146C186.413 56.4123 187.656 50.988 186.616 45.5118C185.578 40.0349 181.971 34.7167 176.25 31.4024L155.407 19.3335C152.657 17.7396 149.707 16.8717 146.812 16.6569C143.916 16.442 141.068 16.871 138.544 17.8421C135.532 19.0007 132.938 20.7983 130.78 22.9982L110.419 17.2502C109.885 15.1255 109.063 13.0969 107.99 11.2158C105.412 6.6903 101.362 2.89087 96.1147 1.0554C94.1481 0.367273 92.0121 0.0105717 89.8159 0.00214569L89.8152 3.90052e-05ZM89.6843 13.0351C90.4282 13.0562 91.119 13.212 91.8049 13.4515C93.6344 14.0919 95.4617 15.6654 96.6382 17.7305C97.8154 19.7963 98.2563 22.1998 97.884 24.1385C97.5145 26.0737 96.6207 27.7266 93.8828 29.317C93.8758 29.3212 93.866 29.3142 93.8604 29.317L73.0168 41.3873C70.5357 42.8225 69.0093 42.7144 67.2869 42.0445C66.8334 41.8689 66.3645 41.6211 65.9082 41.3213L65.9739 41.079L65.3399 40.9035C64.269 40.0728 63.2563 38.9346 62.4963 37.5906C61.2806 35.442 60.7991 32.9324 61.0965 31.052C61.394 29.1716 62.0763 27.8235 64.4209 26.4669V26.4444L85.2632 14.3755H85.2856C86.6993 13.5568 87.8667 13.1678 88.9165 13.059C89.179 13.0323 89.4344 13.0309 89.6822 13.0379L89.6843 13.0351ZM145.171 29.6245C145.388 29.6105 145.604 29.6077 145.827 29.6245C146.721 29.6877 147.673 29.9967 148.845 30.6778V30.6988L169.711 42.7677C172.538 44.4052 173.416 46.0581 173.778 47.968C174.141 49.8779 173.682 52.2547 172.488 54.3086C171.295 56.3638 169.448 57.9416 167.589 58.5883C165.731 59.2343 163.868 59.3045 161.115 57.7106L140.251 45.6199C137.771 44.1819 137.122 42.8218 136.838 40.9898C136.554 39.1586 137.034 36.7136 138.281 34.5825C139.529 32.4522 141.453 30.7663 143.225 30.0852C143.888 29.8296 144.519 29.6653 145.17 29.6245H145.171ZM55.4779 81.8687C57.0498 81.823 58.3754 82.2724 60.0481 83.9541L77.0865 101.024C79.3933 103.341 79.8091 105.164 79.6663 107.103C79.5235 109.042 78.4849 111.221 76.801 112.895C75.1178 114.571 72.9237 115.628 70.9619 115.77C68.9988 115.913 67.1721 115.479 64.9248 113.225L47.9095 96.155C45.8868 94.1222 45.5908 92.5985 45.7889 90.7553C45.9869 88.9142 47.0955 86.6982 48.8508 84.9624C50.6061 83.2281 52.8912 82.1116 54.7788 81.9129C55.0139 81.8883 55.2533 81.8757 55.4786 81.8694L55.4779 81.8687ZM210.609 91.1731L167.151 134.774L201.336 169.07L220.189 150.155L220.429 150.396C221.112 149.621 221.813 148.854 222.552 148.114C241.931 128.669 273.356 128.669 292.735 148.114C311.775 167.215 312.111 197.983 293.742 217.495C293.739 217.505 293.724 217.509 293.721 217.519C293 219.284 292.76 221.005 292.825 222.675C292.951 226.015 294.515 229.349 296.979 231.847C299.443 234.344 302.697 235.884 305.99 236.015C308.52 236.116 311.176 235.502 314.018 233.47C340.319 203.741 339.293 158.134 310.912 129.66C290.475 109.156 261.097 103.052 235.282 111.008L231.52 112.171L228.742 109.385L210.609 91.1731ZM202.386 119.743L215.203 132.601L205.95 141.884L193.134 129.024L202.386 119.743H202.386ZM71.8382 153.447L59.3272 200.338L85.0686 207.25L84.9818 207.58C85.9931 207.785 87.0115 208.01 88.0221 208.282C114.497 215.399 130.196 242.699 123.103 269.261C116.131 295.364 89.7368 311.029 63.7007 304.808C61.8146 305.071 60.2112 305.739 58.8016 306.629C55.9811 308.408 53.8857 311.401 52.9619 314.791C52.038 318.181 52.3264 321.805 53.8577 324.731C55.0377 326.982 56.9022 329.004 60.0915 330.458C98.896 338.439 137.75 314.725 148.145 275.843C148.147 275.836 148.143 275.828 148.145 275.821C155.615 247.82 146.197 219.246 126.428 200.798L123.54 198.099L124.546 194.282L131.195 169.397L71.8382 153.446V153.447ZM183.577 169.794C179.319 193.302 186.191 218.299 204.377 236.544C229.715 261.966 268.42 265.722 297.502 247.515C293.763 246.104 290.412 243.854 287.662 241.065C284.068 237.424 281.44 232.786 280.334 227.614C261.669 237.243 238.188 234.219 222.551 218.53C212.238 208.183 207.41 194.424 208.072 180.876L205.973 182.982L201.336 187.634L196.721 182.982L183.577 169.796L183.577 169.794ZM91.434 172.668L104.074 176.07L99.3943 193.647L86.7525 190.246L91.4347 172.668H91.434ZM49.8124 185.264C27.4025 193.325 9.26873 211.806 2.61432 236.719C-6.66041 271.448 9.45209 306.944 39.7077 323.108C39.0526 319.158 39.3101 315.132 40.3424 311.347C41.6883 306.407 44.3898 301.777 48.3028 298.225C30.652 286.823 21.5172 264.935 27.2422 243.499C31.018 229.362 40.4943 218.275 52.5252 212.077L49.6382 211.311L43.3183 209.597L45.0015 203.257L49.8124 185.264Z" fill="url(#paint0_linear_398_114)"/>
<defs>
<linearGradient id="paint0_linear_398_114" x1="166.5" y1="0" x2="166.5" y2="332" gradientUnits="userSpaceOnUse">
<stop offset="0.0240385" stop-color="#FFCDB8"/>
<stop offset="0.293269" stop-color="#FFB18F"/>
<stop offset="0.528846" stop-color="#DB5F29"/>
<stop offset="0.745192" stop-color="#99421D"/>
<stop offset="0.985577" stop-color="#52230F"/>
</linearGradient>
</defs>
</svg>
